<svg width="44" height="44" viewBox="0 0 44 44" fill="none" xmlns="http://www.w3.org/2000/svg">
<path d="M25.6673 3.66797H11.0007C10.0282 3.66797 9.09556 4.05428 8.40793 4.74191C7.72029 5.42954 7.33398 6.36217 7.33398 7.33464V36.668C7.33398 37.6404 7.72029 38.5731 8.40793 39.2607C9.09556 39.9483 10.0282 40.3346 11.0007 40.3346H33.0006C33.9731 40.3346 34.9057 39.9483 35.5934 39.2607C36.281 38.5731 36.6673 37.6404 36.6673 36.668V14.668M25.6673 3.66797L36.6673 14.668M25.6673 3.66797V14.668H36.6673M29.334 23.8346H14.6673M29.334 31.168H14.6673M18.334 16.5013H14.6673" stroke="black" stroke-width="3" stroke-linecap="round" stroke-linejoin="round"/>
</svg>
